{
    "asset" : {
        "generator" : "Khronos glTF Blender I/O v1.5.17",
        "version" : "2.0"
    },
    "scene" : 0,
    "scenes" : [
        {
            "name" : "Scene",
            "nodes" : [
                0,
                1,
                2,
                3
            ]
        }
    ],
    "nodes" : [
        {
            "mesh" : 0,
            "name" : "Cylinder",
            "scale" : [
                1.914451003074646,
                27.631860733032227,
                1.914451003074646
            ],
            "translation" : [
                1.0493087768554688,
                68.41050720214844,
                -0.15040206909179688
            ]
        },
        {
            "mesh" : 1,
            "name" : "Cube",
            "scale" : [
                6.900101661682129,
                3.131906270980835,
                3.4293720722198486
            ],
            "translation" : [
                1.0493087768554688,
                98.3331298828125,
                -0.15040206909179688
            ]
        },
        {
            "mesh" : 2,
            "name" : "Cylinder.001",
            "rotation" : [
                0,
                0,
                -0.6996368169784546,
                0.7144986391067505
            ],
            "scale" : [
                1.0473084449768066,
                3.3709805011749268,
                1.0462515354156494
            ],
            "translation" : [
                -4.946342468261719,
                98.419189453125,
                -0.15040206909179688
            ]
        },
        {
            "mesh" : 3,
            "name" : "Cube.002",
            "rotation" : [
                0.9418451189994812,
                0,
                0,
                0.33604732155799866
            ],
            "scale" : [
                1.06924307346344,
                2.3450655937194824,
                9.274942398071289
            ],
            "translation" : [
                0.9958868026733398,
                98.50506591796875,
                4.6840620040893555
            ]
        }
    ],
    "animations" : [
        {
            "channels" : [
                {
                    "sampler" : 0,
                    "target" : {
                        "node" : 0,
                        "path" : "rotation"
                    }
                }
            ],
            "name" : "CylinderAction.017",
            "samplers" : [
                {
                    "input" : 16,
                    "interpolation" : "LINEAR",
                    "output" : 17
                }
            ]
        },
        {
            "channels" : [
                {
                    "sampler" : 0,
                    "target" : {
                        "node" : 1,
                        "path" : "rotation"
                    }
                }
            ],
            "name" : "CubeAction.017",
            "samplers" : [
                {
                    "input" : 16,
                    "interpolation" : "LINEAR",
                    "output" : 18
                }
            ]
        },
        {
            "channels" : [
                {
                    "sampler" : 0,
                    "target" : {
                        "node" : 2,
                        "path" : "rotation"
                    }
                }
            ],
            "name" : "Cylinder.001Action.017",
            "samplers" : [
                {
                    "input" : 16,
                    "interpolation" : "LINEAR",
                    "output" : 19
                }
            ]
        },
        {
            "channels" : [
                {
                    "sampler" : 0,
                    "target" : {
                        "node" : 3,
                        "path" : "rotation"
                    }
                }
            ],
            "name" : "Cube.002Action",
            "samplers" : [
                {
                    "input" : 16,
                    "interpolation" : "LINEAR",
                    "output" : 20
                }
            ]
        }
    ],
    "materials" : [
        {
            "doubleSided" : true,
            "name" : "Material.002",
            "pbrMetallicRoughness" : {
                "baseColorFactor" : [
                    0.6981925964355469,
                    0.6981925964355469,
                    0.6981925964355469,
                    1
                ],
                "metallicFactor" : 0.75,
                "roughnessFactor" : 0
            }
        },
        {
            "doubleSided" : true,
            "name" : "Material.005",
            "pbrMetallicRoughness" : {
                "baseColorFactor" : [
                    0.800000011920929,
                    0.800000011920929,
                    0.800000011920929,
                    1
                ],
                "metallicFactor" : 0.75,
                "roughnessFactor" : 0
            }
        },
        {
            "doubleSided" : true,
            "name" : "Material.003",
            "pbrMetallicRoughness" : {
                "baseColorFactor" : [
                    0.800000011920929,
                    0.800000011920929,
                    0.800000011920929,
                    1
                ],
                "metallicFactor" : 0.75,
                "roughnessFactor" : 0
            }
        }
    ],
    "meshes" : [
        {
            "name" : "Cylinder",
            "primitives" : [
                {
                    "attributes" : {
                        "POSITION" : 0,
                        "NORMAL" : 1,
                        "TEXCOORD_0" : 2
                    },
                    "indices" : 3,
                    "material" : 0
                }
            ]
        },
        {
            "name" : "Cube.002",
            "primitives" : [
                {
                    "attributes" : {
                        "POSITION" : 4,
                        "NORMAL" : 5,
                        "TEXCOORD_0" : 6
                    },
                    "indices" : 7,
                    "material" : 1
                }
            ]
        },
        {
            "name" : "Cylinder.001",
            "primitives" : [
                {
                    "attributes" : {
                        "POSITION" : 8,
                        "NORMAL" : 9,
                        "TEXCOORD_0" : 10
                    },
                    "indices" : 11
                }
            ]
        },
        {
            "name" : "Cube.004",
            "primitives" : [
                {
                    "attributes" : {
                        "POSITION" : 12,
                        "NORMAL" : 13,
                        "TEXCOORD_0" : 14
                    },
                    "indices" : 15,
                    "material" : 2
                }
            ]
        }
    ],
    "accessors" : [
        {
            "bufferView" : 0,
            "componentType" : 5126,
            "count" : 320,
            "max" : [
                1.0000176429748535,
                1.1958551406860352,
                1
            ],
            "min" : [
                -1,
                -2.6494550704956055,
                -1
            ],
            "type" : "VEC3"
        },
        {
            "bufferView" : 1,
            "componentType" : 5126,
            "count" : 320,
            "type" : "VEC3"
        },
        {
            "bufferView" : 2,
            "componentType" : 5126,
            "count" : 320,
            "type" : "VEC2"
        },
        {
            "bufferView" : 3,
            "componentType" : 5123,
            "count" : 564,
            "type" : "SCALAR"
        },
        {
            "bufferView" : 4,
            "componentType" : 5126,
            "count" : 96,
            "max" : [
                1.0986348390579224,
                1.1186884641647339,
                1.0479457378387451
            ],
            "min" : [
                -1.1108142137527466,
                -1.090760588645935,
                -1
            ],
            "type" : "VEC3"
        },
        {
            "bufferView" : 5,
            "componentType" : 5126,
            "count" : 96,
            "type" : "VEC3"
        },
        {
            "bufferView" : 6,
            "componentType" : 5126,
            "count" : 96,
            "type" : "VEC2"
        },
        {
            "bufferView" : 7,
            "componentType" : 5123,
            "count" : 132,
            "type" : "SCALAR"
        },
        {
            "bufferView" : 8,
            "componentType" : 5126,
            "count" : 768,
            "max" : [
                1.1472675800323486,
                1,
                1.1472675800323486
            ],
            "min" : [
                -1.1972105503082275,
                -1.035078525543213,
                -1.1472675800323486
            ],
            "type" : "VEC3"
        },
        {
            "bufferView" : 9,
            "componentType" : 5126,
            "count" : 768,
            "type" : "VEC3"
        },
        {
            "bufferView" : 10,
            "componentType" : 5126,
            "count" : 768,
            "type" : "VEC2"
        },
        {
            "bufferView" : 11,
            "componentType" : 5123,
            "count" : 1140,
            "type" : "SCALAR"
        },
        {
            "bufferView" : 12,
            "componentType" : 5126,
            "count" : 78,
            "max" : [
                1.0952041149139404,
                23.43181610107422,
                3.1878676414489746
            ],
            "min" : [
                -1.1814398765563965,
                -19.537416458129883,
                -6.0066046714782715
            ],
            "type" : "VEC3"
        },
        {
            "bufferView" : 13,
            "componentType" : 5126,
            "count" : 78,
            "type" : "VEC3"
        },
        {
            "bufferView" : 14,
            "componentType" : 5126,
            "count" : 78,
            "type" : "VEC2"
        },
        {
            "bufferView" : 15,
            "componentType" : 5123,
            "count" : 252,
            "type" : "SCALAR"
        },
        {
            "bufferView" : 16,
            "componentType" : 5126,
            "count" : 10,
            "max" : [
                0.4166666666666667
            ],
            "min" : [
                0.041666666666666664
            ],
            "type" : "SCALAR"
        },
        {
            "bufferView" : 17,
            "componentType" : 5126,
            "count" : 10,
            "type" : "VEC4"
        },
        {
            "bufferView" : 18,
            "componentType" : 5126,
            "count" : 10,
            "type" : "VEC4"
        },
        {
            "bufferView" : 19,
            "componentType" : 5126,
            "count" : 10,
            "type" : "VEC4"
        },
        {
            "bufferView" : 20,
            "componentType" : 5126,
            "count" : 10,
            "type" : "VEC4"
        }
    ],
    "bufferViews" : [
        {
            "buffer" : 0,
            "byteLength" : 3840,
            "byteOffset" : 0
        },
        {
            "buffer" : 0,
            "byteLength" : 3840,
            "byteOffset" : 3840
        },
        {
            "buffer" : 0,
            "byteLength" : 2560,
            "byteOffset" : 7680
        },
        {
            "buffer" : 0,
            "byteLength" : 1128,
            "byteOffset" : 10240
        },
        {
            "buffer" : 0,
            "byteLength" : 1152,
            "byteOffset" : 11368
        },
        {
            "buffer" : 0,
            "byteLength" : 1152,
            "byteOffset" : 12520
        },
        {
            "buffer" : 0,
            "byteLength" : 768,
            "byteOffset" : 13672
        },
        {
            "buffer" : 0,
            "byteLength" : 264,
            "byteOffset" : 14440
        },
        {
            "buffer" : 0,
            "byteLength" : 9216,
            "byteOffset" : 14704
        },
        {
            "buffer" : 0,
            "byteLength" : 9216,
            "byteOffset" : 23920
        },
        {
            "buffer" : 0,
            "byteLength" : 6144,
            "byteOffset" : 33136
        },
        {
            "buffer" : 0,
            "byteLength" : 2280,
            "byteOffset" : 39280
        },
        {
            "buffer" : 0,
            "byteLength" : 936,
            "byteOffset" : 41560
        },
        {
            "buffer" : 0,
            "byteLength" : 936,
            "byteOffset" : 42496
        },
        {
            "buffer" : 0,
            "byteLength" : 624,
            "byteOffset" : 43432
        },
        {
            "buffer" : 0,
            "byteLength" : 504,
            "byteOffset" : 44056
        },
        {
            "buffer" : 0,
            "byteLength" : 40,
            "byteOffset" : 44560
        },
        {
            "buffer" : 0,
            "byteLength" : 160,
            "byteOffset" : 44600
        },
        {
            "buffer" : 0,
            "byteLength" : 160,
            "byteOffset" : 44760
        },
        {
            "buffer" : 0,
            "byteLength" : 160,
            "byteOffset" : 44920
        },
        {
            "buffer" : 0,
            "byteLength" : 160,
            "byteOffset" : 45080
        }
    ],
    "buffers" : [
        {
            "byteLength" : 45240,
            "uri" : "windTurbine.bin"
        }
    ]
}
